# xmcd
#
# Track frame offsets:
#	150
#	19456
#	31645
#	54480
#	69137
#
# Disc length: 1154 seconds
#
# Revision: 1
# Processed by: cddbd v1.5.2PL0 Copyright (c) Steve Scherf et al.
# Submitted via: EasyCDDAExtractor 5.0.6
#
DISCID=34048005
DTITLE=The Presets - Girl And The Sea EP
DYEAR=2004
DGENRE=Electronic
TTITLE0=Girl And The Sea
TTITLE1=Kitty In The Middle
TTITLE2=Summer Of Love
TTITLE3=Mia's Mouse
TTITLE4=Cutters
EXTD=
EXTT0=
EXTT1=
EXTT2=
EXTT3=
EXTT4=
PLAYORDER=
